<?xml version="1.0" encoding="UTF-8"?>
<!DOCTYPE svg PUBLIC "-//W3C//DTD SVG 1.1//EN" "http://www.w3.org/Graphics/SVG/1.1/DTD/svg11.dtd">
<svg xmlns="http://www.w3.org/2000/svg" version="1.1" width="93px" height="104px" style="shape-rendering:geometricPrecision; text-rendering:geometricPrecision; image-rendering:optimizeQuality; fill-rule:evenodd; clip-rule:evenodd" xmlns:xlink="http://www.w3.org/1999/xlink">
<g><path style="opacity:1" fill="#71baf4" d="M 10.5,2.5 C 29.5029,2.33338 48.5029,2.50005 67.5,3C 68.3333,3.83333 69.1667,4.66667 70,5.5C 70.4983,8.81677 70.665,12.1501 70.5,15.5C 65.228,14.5998 59.8947,14.2665 54.5,14.5C 56.9686,13.6829 59.6353,13.1829 62.5,13C 55.9944,12.571 49.4944,12.071 43,11.5C 32.5799,12.2566 22.4132,12.59 12.5,12.5C 9.34352,11.6316 7.67686,9.46493 7.5,6C 8.07071,4.40088 9.07071,3.23421 10.5,2.5 Z"/></g>
<g><path style="opacity:1" fill="#e0f0f3" d="M 54.5,14.5 C 59.8947,14.2665 65.228,14.5998 70.5,15.5C 73.9809,19.7634 77.4809,24.0968 81,28.5C 81.4999,43.4963 81.6666,58.4963 81.5,73.5C 75.3466,74.3279 69.0133,74.8279 62.5,75C 61.9558,75.7172 61.2891,76.2172 60.5,76.5C 47.8333,76.5 35.1667,76.5 22.5,76.5C 22.5,77.5 22.5,78.5 22.5,79.5C 35.1667,79.5 47.8333,79.5 60.5,79.5C 60.5,84.1667 60.5,88.8333 60.5,93.5C 45.8333,93.5 31.1667,93.5 16.5,93.5C 16.5,67.8333 16.5,42.1667 16.5,16.5C 17.1667,16.1667 17.8333,15.8333 18.5,15.5C 30.4197,14.5214 42.4197,14.1881 54.5,14.5 Z"/></g>
<g><path style="opacity:1" fill="#5faef1" d="M 10.5,2.5 C 9.07071,3.23421 8.07071,4.40088 7.5,6C 7.67686,9.46493 9.34352,11.6316 12.5,12.5C 22.4132,12.59 32.5799,12.2566 43,11.5C 49.4944,12.071 55.9944,12.571 62.5,13C 59.6353,13.1829 56.9686,13.6829 54.5,14.5C 42.4197,14.1881 30.4197,14.5214 18.5,15.5C 17.0813,14.5489 15.4147,14.2155 13.5,14.5C 13.7163,16.6807 12.883,18.3474 11,19.5C 10.5,43.4977 10.3334,67.4977 10.5,91.5C 9.16667,91.5 7.83333,91.5 6.5,91.5C 6.82482,62.0929 6.49148,32.7596 5.5,3.5C 6.91866,2.54885 8.58533,2.21552 10.5,2.5 Z"/></g>
<g><path style="opacity:1" fill="#4b9dec" d="M 5.5,3.5 C 6.49148,32.7596 6.82482,62.0929 6.5,91.5C 7.83333,91.5 9.16667,91.5 10.5,91.5C 10.3334,67.4977 10.5,43.4977 11,19.5C 12.883,18.3474 13.7163,16.6807 13.5,14.5C 15.4147,14.2155 17.0813,14.5489 18.5,15.5C 17.8333,15.8333 17.1667,16.1667 16.5,16.5C 15.1667,16.5 14.5,17.1667 14.5,18.5C 13.8333,18.5 13.5,18.8333 13.5,19.5C 12.71,20.6085 12.21,21.9419 12,23.5C 11.5,46.831 11.3334,70.1643 11.5,93.5C 8.95557,93.8957 6.7889,93.229 5,91.5C 4.50002,62.8353 4.33336,34.1686 4.5,5.5C 4.32842,4.50838 4.66175,3.84171 5.5,3.5 Z"/></g>
<g><path style="opacity:1" fill="#76bcf3" d="M 22.5,30.5 C 33.5202,30.1679 44.5202,30.5012 55.5,31.5C 55.2907,32.086 54.9574,32.586 54.5,33C 43.8385,33.4998 33.1719,33.6665 22.5,33.5C 22.5,32.5 22.5,31.5 22.5,30.5 Z"/></g>
<g><path style="opacity:1" fill="#73baf3" d="M 22.5,35.5 C 37.8333,35.5 53.1667,35.5 68.5,35.5C 68.5,36.5 68.5,37.5 68.5,38.5C 53.1667,38.5 37.8333,38.5 22.5,38.5C 22.5,37.5 22.5,36.5 22.5,35.5 Z"/></g>
<g><path style="opacity:1" fill="#6eb8f3" d="M 22.5,43.5 C 33.1719,43.3335 43.8385,43.5002 54.5,44C 54.9574,44.414 55.2907,44.914 55.5,45.5C 44.5202,46.4988 33.5202,46.8321 22.5,46.5C 22.5,45.5 22.5,44.5 22.5,43.5 Z"/></g>
<g><path style="opacity:1" fill="#3c79db" d="M 4.5,5.5 C 4.33336,34.1686 4.50002,62.8353 5,91.5C 6.7889,93.229 8.95557,93.8957 11.5,93.5C 11.3334,70.1643 11.5,46.831 12,23.5C 12.21,21.9419 12.71,20.6085 13.5,19.5C 13.1669,43.5093 13.5003,67.5093 14.5,91.5C 15.8289,67.0033 15.8289,42.67 14.5,18.5C 14.5,17.1667 15.1667,16.5 16.5,16.5C 16.5,42.1667 16.5,67.8333 16.5,93.5C 31.1667,93.5 45.8333,93.5 60.5,93.5C 60.5,94.1667 60.1667,94.5 59.5,94.5C 41.4969,94.6666 23.4969,94.4999 5.5,94C 5,93.5 4.5,93 4,92.5C 3.16955,63.3304 3.33622,34.3304 4.5,5.5 Z"/></g>
<g><path style="opacity:1" fill="#0325bc" d="M 14.5,18.5 C 15.8289,42.67 15.8289,67.0033 14.5,91.5C 13.5003,67.5093 13.1669,43.5093 13.5,19.5C 13.5,18.8333 13.8333,18.5 14.5,18.5 Z"/></g>
<g><path style="opacity:1" fill="#72baf3" d="M 22.5,49.5 C 37.8333,49.5 53.1667,49.5 68.5,49.5C 68.5,50.5 68.5,51.5 68.5,52.5C 53.1667,52.5 37.8333,52.5 22.5,52.5C 22.5,51.5 22.5,50.5 22.5,49.5 Z"/></g>
<g><path style="opacity:1" fill="#75bbf3" d="M 22.5,57.5 C 33.5202,57.1679 44.5202,57.5012 55.5,58.5C 55.2907,59.086 54.9574,59.586 54.5,60C 43.8385,60.4998 33.1719,60.6665 22.5,60.5C 22.5,59.5 22.5,58.5 22.5,57.5 Z"/></g>
<g><path style="opacity:1" fill="#6fb9f3" d="M 22.5,62.5 C 37.8333,62.5 53.1667,62.5 68.5,62.5C 68.5,63.5 68.5,64.5 68.5,65.5C 53.1667,65.5 37.8333,65.5 22.5,65.5C 22.5,64.5 22.5,63.5 22.5,62.5 Z"/></g>
<g><path style="opacity:1" fill="#6eb8f3" d="M 22.5,70.5 C 33.1719,70.3335 43.8385,70.5002 54.5,71C 54.9574,71.414 55.2907,71.914 55.5,72.5C 44.5202,73.4988 33.5202,73.8321 22.5,73.5C 22.5,72.5 22.5,71.5 22.5,70.5 Z"/></g>
<g><path style="opacity:1" fill="#72baf3" d="M 60.5,76.5 C 60.5,77.5 60.5,78.5 60.5,79.5C 47.8333,79.5 35.1667,79.5 22.5,79.5C 22.5,78.5 22.5,77.5 22.5,76.5C 35.1667,76.5 47.8333,76.5 60.5,76.5 Z"/></g>
<g><path style="opacity:1" fill="#41db5b" d="M 81.5,73.5 C 83.4835,73.3832 85.1502,74.0499 86.5,75.5C 87.8146,83.7255 87.8146,91.8922 86.5,100C 78.6047,101.601 70.6047,101.934 62.5,101C 60.0807,99.4912 59.0807,97.3245 59.5,94.5C 60.1667,94.5 60.5,94.1667 60.5,93.5C 60.5,88.8333 60.5,84.1667 60.5,79.5C 60.5,78.5 60.5,77.5 60.5,76.5C 61.2891,76.2172 61.9558,75.7172 62.5,75C 69.0133,74.8279 75.3466,74.3279 81.5,73.5 Z"/></g>
<g><path style="opacity:1" fill="#d3dcdb" d="M 80.5,80.5 C 82.3547,80.272 83.1881,80.9387 83,82.5C 79.5994,85.6353 76.9327,89.302 75,93.5C 73.8668,95.2112 72.3668,95.7112 70.5,95C 67.113,92.9984 65.613,90.165 66,86.5C 66.414,86.0426 66.914,85.7093 67.5,85.5C 69.1667,86.8333 70.8333,88.1667 72.5,89.5C 74.9588,86.1984 77.6255,83.1984 80.5,80.5 Z"/></g>
</svg>
